<svg width="208" height="34" viewBox="0 0 208 34" fill="none" xmlns="http://www.w3.org/2000/svg">
<path d="M38.6547 8.1898L27.4047 33.2998H18.8997L17.8197 17.0098L10.8447 33.2998H2.38467L-0.000331983 8.1898H7.69467L8.05467 26.1448L15.4797 8.1898H23.6247L24.7497 26.1448L31.4097 8.1898H38.6547ZM48.6092 33.6598C46.4492 33.6598 44.5292 33.2248 42.8492 32.3548C41.1692 31.4848 39.8642 30.2548 38.9342 28.6648C38.0342 27.0748 37.5842 25.2298 37.5842 23.1298C37.5842 20.2798 38.2592 17.6848 39.6092 15.3448C40.9592 13.0048 42.8192 11.1748 45.1892 9.8548C47.5592 8.5048 50.1992 7.8298 53.1092 7.8298C55.2692 7.8298 57.1892 8.2798 58.8692 9.1798C60.5792 10.0498 61.8992 11.2798 62.8292 12.8698C63.7592 14.4598 64.2242 16.3048 64.2242 18.4048C64.2242 21.2848 63.5342 23.8948 62.1542 26.2348C60.8042 28.5448 58.9292 30.3598 56.5292 31.6798C54.1592 32.9998 51.5192 33.6598 48.6092 33.6598ZM49.6892 27.0448C50.9492 27.0448 52.0742 26.6698 53.0642 25.9198C54.0842 25.1398 54.8642 24.1498 55.4042 22.9498C55.9742 21.7198 56.2592 20.4448 56.2592 19.1248C56.2592 17.6248 55.8542 16.4698 55.0442 15.6598C54.2342 14.8498 53.2142 14.4448 51.9842 14.4448C50.6942 14.4448 49.5542 14.8348 48.5642 15.6148C47.6042 16.3648 46.8542 17.3548 46.3142 18.5848C45.7742 19.8148 45.5042 21.1048 45.5042 22.4548C45.5042 23.9248 45.8942 25.0648 46.6742 25.8748C47.4542 26.6548 48.4592 27.0448 49.6892 27.0448ZM94.9915 8.1898L90.5815 33.2998H82.8865L83.4715 29.8798C82.4815 30.9898 81.2665 31.8898 79.8265 32.5798C78.4165 33.2398 76.9015 33.5698 75.2815 33.5698C72.7615 33.5698 70.7815 32.8648 69.3415 31.4548C67.9015 30.0148 67.1815 28.0198 67.1815 25.4698C67.1815 24.5098 67.2565 23.6398 67.4065 22.8598L70.0165 8.1898H77.6665L75.2815 21.8248C75.1915 22.3048 75.1465 22.7698 75.1465 23.2198C75.1465 24.4798 75.4915 25.4548 76.1815 26.1448C76.9015 26.8048 77.8915 27.1348 79.1515 27.1348C80.5915 27.1348 81.8065 26.7148 82.7965 25.8748C83.8165 25.0048 84.4915 23.7748 84.8215 22.1848L87.2965 8.1898H94.9915ZM109.699 -0.000195742L103.804 33.2998H96.1088L102.004 -0.000195742H109.699ZM110.1 20.6998C110.55 18.1198 111.435 15.8548 112.755 13.9048C114.075 11.9548 115.665 10.4548 117.525 9.4048C119.385 8.3548 121.35 7.8298 123.42 7.8298C125.07 7.8298 126.51 8.1748 127.74 8.8648C129 9.5548 129.915 10.4848 130.485 11.6548L132.555 -0.000195742H140.25L134.355 33.2998H126.66L127.29 29.6998C126.33 30.8998 125.13 31.8598 123.69 32.5798C122.25 33.2998 120.645 33.6598 118.875 33.6598C117.105 33.6598 115.53 33.2548 114.15 32.4448C112.8 31.6348 111.735 30.4798 110.955 28.9798C110.205 27.4798 109.83 25.7248 109.83 23.7148C109.83 22.7848 109.92 21.7798 110.1 20.6998ZM128.91 20.7448C129 20.2048 129.045 19.7098 129.045 19.2598C129.045 17.7898 128.61 16.6348 127.74 15.7948C126.9 14.9548 125.82 14.5348 124.5 14.5348C122.97 14.5348 121.575 15.0898 120.315 16.1998C119.055 17.2798 118.26 18.7798 117.93 20.6998C117.84 21.2398 117.795 21.7348 117.795 22.1848C117.795 23.6548 118.215 24.8248 119.055 25.6948C119.925 26.5348 121.005 26.9548 122.295 26.9548C123.825 26.9548 125.22 26.3998 126.48 25.2898C127.74 24.1798 128.55 22.6648 128.91 20.7448ZM161.812 11.7448C162.772 10.5748 163.987 9.6298 165.457 8.9098C166.927 8.1898 168.532 7.8298 170.272 7.8298C172.972 7.8298 175.147 8.7148 176.797 10.4848C178.477 12.2248 179.317 14.6098 179.317 17.6398C179.317 18.5998 179.227 19.6198 179.047 20.6998C178.597 23.2798 177.712 25.5598 176.392 27.5398C175.072 29.4898 173.482 31.0048 171.622 32.0848C169.762 33.1348 167.797 33.6598 165.727 33.6598C163.957 33.6598 162.472 33.3148 161.272 32.6248C160.072 31.9048 159.202 30.9598 158.662 29.7898L158.032 33.2998H150.337L156.232 -0.000195742H163.927L161.812 11.7448ZM171.262 20.6998C171.352 20.1898 171.397 19.7248 171.397 19.3048C171.397 17.8048 170.962 16.6348 170.092 15.7948C169.252 14.9548 168.172 14.5348 166.852 14.5348C165.322 14.5348 163.927 15.0898 162.667 16.1998C161.407 17.3098 160.597 18.8248 160.237 20.7448C160.147 21.2848 160.102 21.7798 160.102 22.2298C160.102 23.6998 160.522 24.8548 161.362 25.6948C162.202 26.5348 163.282 26.9548 164.602 26.9548C166.132 26.9548 167.527 26.3998 168.787 25.2898C170.077 24.1498 170.902 22.6198 171.262 20.6998ZM196.539 7.8298C199.779 7.8298 202.344 8.7148 204.234 10.4848C206.154 12.2248 207.114 14.6098 207.114 17.6398C207.114 18.6298 207.039 19.5148 206.889 20.2948C206.769 20.9848 206.589 21.7198 206.349 22.4998H188.934C188.904 22.6798 188.889 22.9648 188.889 23.3548C188.889 24.6748 189.249 25.6798 189.969 26.3698C190.689 27.0598 191.649 27.4048 192.849 27.4048C194.769 27.4048 196.239 26.5948 197.259 24.9748H205.449C204.369 27.5248 202.614 29.6098 200.184 31.2298C197.754 32.8498 195.024 33.6598 191.994 33.6598C188.754 33.6598 186.159 32.7598 184.209 30.9598C182.289 29.1598 181.329 26.7148 181.329 23.6248C181.329 22.6948 181.419 21.7348 181.599 20.7448C182.049 18.1348 182.979 15.8548 184.389 13.9048C185.799 11.9548 187.554 10.4548 189.654 9.4048C191.754 8.3548 194.049 7.8298 196.539 7.8298ZM199.329 18.5848C199.389 18.1648 199.419 17.8798 199.419 17.7298C199.419 16.5298 199.044 15.6148 198.294 14.9848C197.544 14.3248 196.554 13.9948 195.324 13.9948C194.004 13.9948 192.834 14.3998 191.814 15.2098C190.824 15.9898 190.104 17.1148 189.654 18.5848H199.329Z" fill="black"/>
</svg>
